<svg width="184" height="350" viewBox="0 0 184 350" fill="none" xmlns="http://www.w3.org/2000/svg">
<path d="M65.6979 263.112C65.6979 263.112 65.6774 262.86 65.8669 262.623C66.2694 261.707 66.4823 261.027 66.6953 260.347C69.4876 256.996 72.1834 253.557 75.1061 250.323C77.0594 248.161 77.2961 247.843 76.1225 244.594C68.4306 250.421 62.3847 257.416 60.5847 267.036C59.5801 272.405 59.8016 278.003 59.5159 283.9C59.6684 284.659 59.7756 285.017 59.8558 285.511C59.8636 285.734 59.8983 285.82 59.9068 286.125C60.9249 291.043 61.9692 295.74 63.0136 300.438C62.8295 300.506 62.6455 300.574 62.4614 300.642C61.2059 297.638 59.9503 294.635 58.6948 291.631C58.4524 291.614 58.21 291.597 57.9677 291.58C57.7398 292.251 57.2627 292.949 57.3342 293.586C57.4993 295.057 57.6626 296.63 58.3006 297.929C60.9308 303.283 63.7441 308.546 66.4728 313.851C66.8673 314.618 67.1683 315.433 67.8106 316.913C64.7202 314.598 63.5502 311.446 60.5459 310.2C60.6196 311.282 60.9837 312.114 61.521 312.813C63.8832 315.883 66.2656 318.938 68.6981 321.952C71.0225 324.833 72.9864 328.183 77.1225 328.868C77.9995 330.31 78.6332 331.981 77.0993 333.134C76.1607 333.84 74.1087 334.358 73.4449 333.835C72.437 333.04 72.2123 331.261 71.6333 329.91C71.2112 328.925 70.9235 327.824 70.2868 326.998C64.2804 319.203 57.9793 311.623 52.2223 303.65C45.5717 294.439 40.764 284.297 39.1775 272.89C37.5133 260.925 40.0631 249.841 46.7715 239.501C47.8531 239.555 48.6091 239.722 49.4842 239.99C49.9572 240.232 50.5332 240.586 50.6328 240.482C54.5745 236.38 58.4728 232.237 62.4589 228.012C61.408 226.078 60.1453 226.056 58.6904 227.749C57.7746 228.816 56.853 229.877 55.8313 230.715C55.5079 230.047 55.2873 229.604 55.1057 228.98C56.4927 224.808 59.3372 222.107 62.7301 219.823C63.8351 219.08 64.7448 218.046 65.9627 217.15C69.1952 217.192 71.5485 216.021 73.0978 213.377C76.1488 211.639 79.1999 209.9 82.5487 208.238C83.3124 207.941 83.7782 207.568 84.244 207.195C85.8432 206.174 87.2946 205.249 88.0162 203.15C88.8377 200.76 92.9465 200.337 95.8737 202.242C96.2361 202.58 96.4064 202.649 96.5767 202.718C96.5767 202.718 96.4558 202.792 96.4352 202.924C95.8947 203.732 95.3748 204.409 94.8548 205.086C92.5547 206.292 90.2547 207.499 87.5844 208.721C86.7467 209.065 86.2793 209.392 85.812 209.72C82.5903 211.476 79.3687 213.233 75.8074 215.028C75.2203 215.24 74.9729 215.413 74.7255 215.586C74.7255 215.586 74.7193 215.561 74.5279 215.569C71.1927 216.658 68.0578 217.752 66.2674 220.888C64.9755 222.048 63.6836 223.207 62.2297 224.512C62.9542 225.397 63.5351 226.106 64.2166 226.938C64.9132 226.384 65.6765 226.071 65.9441 225.518C68.6614 219.901 74.7864 218.975 79.2433 215.769C79.4379 215.629 79.8149 215.511 79.9864 215.604C83.2168 217.362 85.469 214.925 87.8915 213.656C94.8227 210.023 101.675 206.238 108.543 202.486C110.155 201.605 111.569 200.565 109.921 198.213C109.12 198.925 108.426 199.542 107.732 200.158C108.001 199.889 108.269 199.619 108.538 199.349C105.96 197.28 103.383 195.212 100.666 192.822C100.03 192.256 99.5342 192.01 99.0384 191.764C96.703 191.056 96.3285 191.195 95.6865 193.261C94.3102 193.29 92.9945 193.047 91.6788 192.805C91.0111 192.445 90.3434 192.085 89.4996 191.428C88.6698 190.824 88.0161 190.517 87.3624 190.209C87.3624 190.209 87.3935 190.177 87.3637 190.059C87.0027 189.852 86.6715 189.763 86.3402 189.674C77.3818 185.265 68.8423 180.34 63.554 170.955C60.5425 174.031 60.101 177.693 60.6028 181.466C60.8621 183.416 61.8417 185.271 62.3858 187.478C61.7561 188.177 61.2366 188.565 60.7171 188.953C60.7171 188.953 60.6152 188.931 60.6507 188.7C60.2478 188.159 59.8094 187.848 59.371 187.537C57.0252 187.595 57.4404 189.087 58.2903 190.17C59.8582 192.169 61.6166 194.047 63.4749 195.783C65.6566 197.821 68.0292 199.654 70.0721 202.128C67.319 200.91 64.566 199.692 61.8129 198.474C61.6383 198.761 61.4638 199.048 61.2892 199.335C63.4672 200.872 65.6452 202.41 67.8232 203.947C67.7888 204.093 67.7543 204.239 67.7199 204.385C66.7945 204.065 65.8511 203.79 64.9466 203.42C59.1218 201.033 53.6743 197.998 49.2119 193.495C39.7531 183.95 38.7977 170.475 47.1794 159.351C50.4303 155.036 54.5122 151.305 58.4857 147.597C60.255 145.946 61.7228 144.364 61.8766 141.933C62.0875 138.597 63.8645 136.528 66.7069 134.966C76.3426 129.67 85.8865 124.206 95.5557 118.973C96.6419 118.385 98.5073 118.408 99.6605 118.927C103.236 120.536 106.286 120.5 109.789 118.31C116.123 114.348 122.774 110.886 129.345 107.313C130.995 106.416 131.762 105.283 131.909 103.406C132.17 100.07 135.172 97.7635 138.497 97.6219C139.794 97.5667 141.347 96.845 142.278 95.9187C153.676 84.5839 161.377 70.9688 166.646 55.8871C166.82 55.3896 166.988 54.8894 167.19 54.4033C167.244 54.272 167.412 54.1877 168.033 53.6203C167.592 55.6613 167.401 57.2401 166.906 58.7172C165.313 63.4719 163.564 68.1749 161.989 72.9352C161.735 73.7036 162.058 74.6631 162.115 75.5343C163.077 75.3985 164.369 75.6071 164.94 75.0614C166.566 73.5084 168.3 71.8468 169.276 69.8741C173.561 61.2113 175.164 51.9765 174.427 42.3371C174.425 42.3044 174.557 42.2613 175.047 41.99C175.439 45.0153 175.972 47.8692 176.137 50.7442C176.302 53.6382 176.207 56.5595 176.033 59.4573C175.854 62.4421 175.371 65.4078 175.152 68.3914C174.96 71.0169 173.056 73.3995 173.384 76.089C173.781 76.176 174.178 76.263 174.575 76.3499C175.187 74.3143 176.017 72.3158 176.371 70.2363C177.506 63.5726 178.542 56.8891 179.406 50.1862C179.538 49.1672 178.728 47.8781 178.046 46.9363C176.865 45.305 176.483 43.7253 177.89 42.1665C179.323 40.5788 181.075 40.7015 182.605 41.9953C184.218 43.3594 184.141 44.9406 182.923 46.6722C182.271 47.5989 181.65 48.7976 181.634 49.8823C181.478 60.9006 179.773 71.5951 175.752 81.9175C175.232 83.2531 175.641 85.22 176.218 86.6534C177.195 89.079 177.222 91.2183 175.763 93.3921C171.356 99.9551 167.164 106.676 162.474 113.029C160.566 115.613 159.014 118.082 158.875 121.272C158.709 125.092 157.006 127.918 153.819 129.997C147.703 133.985 141.628 138.036 135.556 142.091C133.876 143.213 132.301 143.249 130.339 142.603C128.945 142.145 127.033 142.272 125.68 142.874C122.395 144.337 119.293 146.215 116.133 147.955C114.04 149.107 111.585 149.755 111.088 152.812C110.98 153.473 108.871 154.251 107.721 154.196C106.066 154.116 105.196 152.536 105.884 151.109C106.38 150.079 107.761 149.335 108.904 148.795C110.008 148.274 111.432 148.409 112.507 147.853C116.647 145.711 120.754 143.493 124.77 141.129C126.788 139.941 128.612 139.885 130.781 140.653C131.849 141.032 133.505 140.986 134.409 140.392C140.876 136.142 147.212 131.692 153.604 127.328C156.029 125.673 156.4 123.315 156.153 120.732C150.767 124.757 145.456 128.775 140.086 132.712C138.243 134.062 136.229 135.176 134.336 136.461C132.4 137.775 130.547 138.926 128.019 137.748C127.346 137.434 126.139 137.909 125.325 138.317C119.423 141.268 113.482 144.157 107.716 147.359C104.918 148.912 102.396 149.465 99.4937 147.442C105.585 144.311 111.69 141.171 117.795 138.032C114.071 137.036 82.8408 152.394 81.0656 155.47C81.8112 155.634 82.4847 155.782 82.5028 155.786C83.5957 157.934 84.0898 160.109 85.444 161.328C88.6897 164.25 92.3193 166.752 95.8619 169.33C96.1735 169.557 96.9838 169.098 97.7981 169.023C98.2108 169.45 98.3879 169.812 98.5657 170.359C99.4554 171.062 100.332 171.605 101.255 172.053C101.333 172.091 101.972 171.277 101.926 171.223C101.369 170.575 100.733 169.996 99.9782 169.287C99.3012 168.914 98.763 168.653 98.2248 168.393C98.3497 168.252 98.4746 168.112 98.9779 167.945C100.321 167.925 101.285 167.931 102.25 167.937C102.25 167.937 102.229 167.964 102.264 168.103C102.599 168.505 102.898 168.767 103.198 169.029C103.351 169.345 103.652 169.669 103.634 169.974C103.355 174.597 106.45 176.684 109.846 178.828C113.096 180.88 116.036 183.423 119.243 185.848C120.487 184.101 119.379 182.625 118.052 181.595C114.724 179.012 111.259 176.603 107.788 174.212C106.503 173.328 105.45 172.549 106.966 170.405C111.286 173.532 115.688 176.533 119.858 179.828C121.538 181.156 122.057 182.937 121.033 185.436C120.327 187.156 121.32 189.572 121.577 191.888C122.609 191.606 122.991 191.601 123.242 191.418C129.945 186.527 132.679 176.796 129.328 169.192C128.835 168.073 127.45 167.358 126.516 166.418C125.595 165.49 123.9 164.457 123.963 163.571C124.331 158.422 120.895 156.067 117.364 153.66C116.634 153.162 115.958 152.585 115.378 151.835C119.276 152.091 122.234 155.83 127.086 154.784C125.613 153.629 124.657 152.879 123.453 151.935C124.108 151.672 124.47 151.376 124.702 151.455C134.655 154.864 142.967 160.351 147.191 170.432C151.612 180.981 148.936 190.611 142.606 199.532C136.435 208.228 127.76 213.994 118.754 219.233C112.998 222.582 106.921 225.377 101.02 228.484C100.286 228.87 99.6338 229.555 99.1501 230.247C96.7111 233.733 92.939 235.118 89.0346 233.923C88.2387 233.679 87.3903 233.607 86.2704 233.401C86.8043 234.426 87.1508 235.091 87.622 235.996C85.6383 237.429 83.7685 238.875 81.8009 240.174C79.8224 241.479 78.315 243.072 78.8834 245.576C79.7892 249.566 76.8721 251.405 74.6824 253.729C72.646 255.89 70.7067 258.142 68.4559 260.564C68.1273 260.983 68.0674 261.194 68.0076 261.404C67.5765 263.171 67.1745 264.946 66.7062 266.703C66.2056 268.581 65.3936 270.371 66.9736 272.257C67.3737 272.735 66.8117 274.019 66.4685 274.872C65.6172 273.825 64.9891 272.839 64.3611 271.852C63.5884 272.581 62.8203 273.314 62.0382 274.033C61.917 274.144 61.7312 274.185 61.5753 274.258C60.6125 271.816 62.072 270.691 64.2016 269.535C64.4311 269.045 64.4498 268.835 64.4684 268.626C64.7495 267.088 65.0306 265.55 65.494 263.758C65.7402 263.377 65.7474 263.246 65.6979 263.112ZM74.7577 180.082C74.7577 180.082 74.8031 180.01 74.8736 180.381C75.3984 180.626 75.9233 180.872 76.7887 181.215C78.3149 182.255 79.8364 183.302 81.3684 184.333C84.7016 186.577 88.2475 186.273 91.4919 183.109C90.4845 182.933 89.5078 183.171 88.5354 183.155C87.0458 183.13 85.215 183.442 84.1311 182.714C79.5373 179.63 75.1161 176.279 70.7374 172.889C69.0015 171.545 67.3979 169.934 68.2321 167.288C68.3293 166.98 67.799 166.474 67.5596 166.06C67.2905 166.047 67.0214 166.034 66.7522 166.021C66.5713 167.167 65.9178 168.512 66.3014 169.419C67.3044 171.792 68.7608 173.972 70.0607 176.62C70.7373 177.08 71.414 177.54 72.3729 178.072C72.6531 178.334 72.9333 178.597 73.2632 179.242C73.783 179.504 74.3028 179.765 74.7577 180.082ZM91.658 190.208C92.9949 191.2 94.174 190.99 95.3255 189.861C92.5122 186.741 90.9639 186.251 88.3803 187.68C88.7937 188.131 89.1861 188.56 89.6606 189.366C90.1985 189.612 90.7364 189.858 91.658 190.208ZM75.4472 132.744C72.464 134.746 69.3838 136.623 66.5453 138.812C65.4025 139.694 64.7896 141.263 63.9355 142.519C64.2248 142.753 64.5141 142.988 64.8035 143.222C68.5889 139.704 74.5469 138.854 76.8924 132.982C78.1311 132.693 79.3592 132.342 80.6109 132.13C82.2676 131.85 84.1353 132.079 85.575 131.387C90.5688 128.988 95.4229 126.296 100.312 123.682C100.933 123.351 101.447 122.822 102.011 122.384C101.95 122.078 101.889 121.773 101.829 121.467C100.279 121.367 98.4256 120.664 97.2278 121.266C89.9991 124.896 82.9204 128.825 75.4472 132.744ZM143.203 125.115C146.283 122.764 149.452 120.52 152.425 118.041C160.973 110.915 167.963 102.476 173.257 92.6703C174.108 91.0937 175.194 89.4164 173.574 87.831C170.05 93.0328 166.816 98.4015 163.002 103.319C153.456 115.624 141.073 124.56 127.777 132.414C124.393 134.413 121.363 135.542 117.527 133.899C116.25 133.352 114.541 133.813 113.03 133.813C113.012 134.115 112.995 134.418 112.977 134.72C115.531 135.547 118.036 136.675 120.654 137.095C122.396 137.374 124.611 137.157 126.075 136.271C131.794 132.814 137.299 129.001 143.203 125.115ZM97.5853 227.539C97.2501 227.148 96.6933 226.373 96.6117 226.421C94.1148 227.865 91.6646 229.391 89.036 231.009C92.8844 233.296 96.9735 231.642 97.5853 227.539ZM139.824 101.534C140.182 101.132 140.539 100.731 140.963 100.254C136.039 98.5024 133.222 100.836 134.085 105.943C135.957 104.501 137.734 103.132 139.824 101.534ZM179.941 45.532C180.636 45.02 181.33 44.5081 182.025 43.9961C181.358 43.6377 180.692 43.2794 180.025 42.9211C179.882 43.737 179.74 44.5529 179.941 45.532ZM76.3846 331.2C76.1835 329.651 75.1924 329.283 74.016 329.969C73.5573 330.237 73.1586 331.633 73.4028 331.898C74.3573 332.936 75.4859 332.963 76.3846 331.2Z" fill="#FFCC00"/>
<path d="M12.3384 218.115C9.75049 217.075 9.02085 214.986 8.55517 212.385C6.54564 201.158 5.72748 189.864 5.67545 178.467C5.66656 176.52 4.36779 174.241 3.00015 172.708C0.222108 169.595 -0.00379001 166.342 0.808008 162.486C3.4254 150.053 6.64413 137.841 12.4688 126.452C12.9761 125.46 13.5603 124.224 13.3919 123.222C12.8536 120.019 14.103 117.654 16.0549 115.302C16.7653 114.445 16.9407 112.948 16.9408 111.743C16.941 109.53 17.8742 108.166 19.9888 107.785C21.6935 107.477 23.8076 109.264 23.7928 111.071C23.7759 113.15 22.7742 114.501 20.4386 114.643C18.3484 114.77 15.1132 119.157 15.6104 121.576C16.2483 124.682 15.2376 127.191 13.9123 129.854C8.17089 141.391 4.96196 153.711 3.15848 166.405C2.9816 167.65 3.80704 169.365 4.71083 170.376C7.5628 173.565 8.25147 177.14 7.96698 181.302C7.67974 185.504 7.94503 189.755 8.16198 193.975C8.22933 195.284 8.92913 196.561 9.62079 197.603C9.62079 192.271 9.55013 186.937 9.63419 181.606C9.87592 166.278 12.7385 151.517 19.5193 137.664C21.0047 134.63 20.3892 131.689 19.1506 128.996C17.3172 125.01 17.951 121.839 20.9267 118.75C24.2201 115.331 27.0422 111.418 30.5637 108.273C33.5296 105.624 35.3666 102.763 35.4591 98.8408C35.5106 96.6586 36.535 95.2581 38.3907 94.2174C40.3851 93.0989 42.2912 91.8209 44.2186 90.5857C45.682 89.6479 47.0869 88.855 47.2472 86.6612C47.3906 84.699 49.1339 84.0057 51.0147 84.2816C53.0263 84.5767 53.8016 85.9384 53.6888 87.8729C53.5729 89.8587 52.309 91.3852 50.5511 91.0339C48.0491 90.5339 46.579 91.854 44.8614 92.9865C44.1261 93.4714 43.4653 94.1185 42.6703 94.455C38.7656 96.1081 37.2732 99.1943 37.3475 103.591C40.9237 103.812 44.4284 105.696 48.2283 103.001C51.433 100.728 55.0752 99.0151 58.6662 97.3642C61.0274 96.2786 62.4265 94.667 63.3219 92.3204C64.0035 90.534 64.9748 88.8581 66.1639 87.0731C66.9568 86.7141 67.403 86.415 67.8491 86.1159C68.8435 85.6903 69.838 85.2647 71.1732 84.8055C71.6987 84.6607 71.8833 84.5495 72.068 84.4383C72.8335 84.0895 73.599 83.7407 74.6429 83.4664C75.2085 83.3412 75.4957 83.1414 75.783 82.9416C75.9061 82.8101 76.0563 82.7284 76.5231 82.6814C76.9937 82.5584 77.1749 82.4504 77.3561 82.3424C77.7308 82.1282 78.1054 81.9139 78.8119 81.692C79.4276 81.5221 79.7115 81.3598 79.9954 81.1975C82.2403 80.1795 84.4851 79.1615 86.9454 78.1025C87.1609 78.0615 87.1088 78.0173 87.1088 78.0173C87.8705 76.9141 88.6321 75.8109 89.6568 74.4511C90.2934 74.1162 90.6669 74.038 91.0403 73.9597C91.0073 74.6225 90.9743 75.2852 90.9246 76.2815C91.8326 75.9506 92.5573 75.6864 93.6463 75.3915C94.2787 75.1999 94.5468 75.039 94.8149 74.878C95.0659 74.7082 95.3169 74.5385 95.8244 74.4513C96.3672 74.3058 96.6537 74.0779 96.9401 73.8499C101.754 71.4024 106.568 68.9548 111.675 66.5809C112.246 66.7477 112.522 66.8411 112.799 67.1415C112.808 67.7628 112.816 68.1769 112.712 68.7328C108.992 70.706 105.45 72.6853 101.764 74.3407C91.2532 79.0598 80.6976 83.6795 70.1267 88.262C67.6785 89.3234 66.5579 91.0694 66.2681 94.0555C83.7617 86.349 100.934 78.8867 117.546 70.234C117.515 69.9529 117.485 69.6719 117.454 69.3908C116.261 68.9501 115.068 68.5094 113.831 67.905C113.457 67.4739 113.125 67.2065 112.795 66.7697C112.798 66.3747 112.8 66.149 112.801 65.9232C114.553 66.128 116.304 66.3327 118.378 66.5751C118.378 65.7005 118.378 64.8893 118.406 63.7018C118.35 63.1194 118.266 62.9135 118.182 62.7075C117.434 60.1236 116.076 57.4582 119.532 55.3515C120.47 55.5351 121.032 55.7516 121.594 55.9682C121.133 56.57 120.673 57.1718 119.948 57.9835C119.771 58.8209 119.857 59.4485 119.943 60.076C120.646 62.5082 121.35 64.9405 122.19 67.8427C124.649 66.1174 127.009 64.5028 129.308 62.8051C129.673 62.5355 129.964 61.8829 129.943 61.4226C129.856 59.445 130.983 58.3463 132.273 57.0175C133.185 56.0788 133.487 54.1961 133.439 52.7558C133.361 50.4473 133.938 48.7874 135.8 47.2865C138.193 45.3581 140.32 43.0958 142.519 40.9338C144.03 39.449 145.895 38.2656 145.2 35.4478C145.014 34.691 146.766 32.7703 147.838 32.5826C148.907 32.3953 150.969 33.48 151.27 34.428C151.64 35.5928 150.976 38.1658 150.17 38.4482C145.09 40.2271 142.626 44.8838 138.892 48.0944C135.705 50.8347 135.826 50.9755 136.064 52.8933C140.384 55.1326 142.688 52.0895 145.193 49.5534C158.9 35.6759 169.682 19.8052 177.605 1.98661C177.813 1.51846 178.059 1.06717 178.59 0C178.752 1.14308 178.92 1.6687 178.885 2.18069C177.503 22.7292 170.548 41.13 157.66 57.2498C156.692 58.4606 155.78 58.9026 154.083 58.5565C150.617 57.8499 149.265 59.1712 149.197 62.7203C149.123 66.6435 147.555 68.2963 143.659 68.5586C140.066 68.8005 137.67 70.639 137.566 74.2058C137.446 78.3265 135.217 80.4187 132.059 82.4517C117.36 91.9144 101.738 99.6537 86.139 107.447C76.4433 112.292 66.8052 117.246 58.1805 123.905C56.4411 125.248 54.7664 126.692 53.1803 128.213C50.9129 130.387 49.7735 132.919 50.2369 136.257C50.9228 141.197 48.7887 144.632 43.9327 145.722C38.2488 146.998 35.4073 150.57 33.4438 155.719C27.4302 171.486 27.278 187.739 28.9235 204.184C30.0869 215.811 32.9366 227.05 36.7916 238.415C36.984 239.16 37.1987 239.538 37.4134 239.915C37.7368 240.429 38.0602 240.942 38.7375 241.415C39.3224 240.865 39.5534 240.355 39.7843 239.845C39.6024 238.202 39.5498 236.53 39.2 234.923C38.8886 233.494 38.2478 232.135 37.8762 230.41C38.2269 229.242 38.4539 228.41 38.6808 227.577C39.0058 226.293 39.3307 225.009 39.6624 223.37C39.5774 222.823 39.4857 222.632 39.394 222.44C39.3292 222.211 39.2644 221.982 39.4141 221.57C40.0281 221.386 40.4275 221.386 40.8269 221.386C40.8851 221.552 40.9433 221.719 40.9774 222.165C41.0399 222.617 41.1266 222.789 41.2132 222.962C41.2032 224.284 41.712 225.98 41.0816 226.856C39.4682 229.099 39.5381 231.15 40.5905 233.465C41.1309 234.654 41.507 235.917 41.9593 237.58C41.9691 238.513 41.977 239.013 41.9848 239.513C41.2064 241.331 40.428 243.149 39.4666 245.174C39.2835 245.381 39.2524 245.633 39.2524 245.633C38.7888 247.135 38.3253 248.637 37.5593 250.306C36.7235 250.469 36.1903 250.465 35.657 250.461C33.5794 245.051 31.4718 239.653 29.444 234.224C28.8936 232.751 28.4104 231.09 26.458 231.795C24.6824 232.436 24.7729 234.049 25.4266 235.591C28.544 242.946 31.7162 250.277 34.7403 257.67C35.3715 259.213 35.7009 260.971 35.7506 262.643C35.886 267.192 35.7971 271.749 35.7971 276.785C34.9172 275.429 34.1205 274.35 33.4756 273.186C26.4489 260.507 21.424 247.014 17.108 233.217C16.663 231.795 15.461 230.258 14.1806 229.504C3.89001 223.441 6.64644 226.599 4.34565 214.83C3.94081 212.759 3.71763 210.642 3.1584 208.616C2.88805 207.637 2.18283 206.65 1.4104 205.964C-0.11481 204.609 -0.508886 202.924 0.754063 201.59C1.55782 200.741 3.80662 200.094 4.51084 200.601C5.4706 201.292 6.3712 203.642 5.89325 204.448C4.6266 206.584 5.2633 208.514 5.5787 210.521C6.04296 213.474 6.83996 216.384 7.15725 219.348C7.44894 222.073 8.61336 223.908 11.078 225.069C12.4856 225.731 13.7845 226.625 15.7712 227.066C14.9305 224.101 14.0898 221.136 12.9195 218.127C12.59 218.083 12.3384 218.115 12.3384 218.115ZM37.746 110.1C38.7273 109.298 39.7086 108.495 40.8002 107.603C37.8568 106.201 35.7127 106.618 33.7283 108.891C30.0252 113.133 26.1726 117.246 22.3296 121.364C20.4302 123.399 20.1932 125.416 21.5171 127.084C26.8284 121.506 32.1445 115.922 37.746 110.1ZM11.3873 206.069C10.9056 203.902 11.332 201.413 9.27387 199.413C9.03084 200.05 8.83798 200.298 8.8683 200.514C9.53962 205.302 10.1599 210.1 10.9955 214.86C11.1489 215.734 12.1953 216.451 12.8295 217.24C12.9981 217.12 13.1667 216.999 13.3352 216.879C12.7177 213.426 12.1002 209.972 11.3873 206.069ZM21.4871 112.443C21.4845 111.601 21.6215 110.716 21.3884 109.944C21.3242 109.731 19.9962 109.601 19.5393 109.892C19.1123 110.163 18.7439 111.437 18.9201 111.583C19.5382 112.097 20.4022 112.315 21.4871 112.443ZM51.3502 86.2502C50.4842 86.6176 49.6182 86.985 48.7522 87.3524C49.3379 87.9582 49.9236 88.5639 50.5094 89.1696C50.8853 88.2999 51.2612 87.4302 51.3502 86.2502ZM4.21185 204.236C4.00095 203.44 3.79004 202.644 3.57914 201.848C3.0008 202.219 2.42244 202.59 1.84407 202.962C2.5146 203.452 3.18513 203.942 4.21185 204.236Z" fill="#FFCC00"/>
<path d="M108.024 246.737C102.886 253.003 97.8882 259.343 94.5275 266.824C90.1426 276.583 89.024 286.934 88.5713 297.448C88.0289 310.044 89.691 322.416 92.4021 334.658C93.4362 339.327 95.0345 343.871 96.365 348.476C96.4497 348.769 96.4419 349.089 96.5462 350C89.4587 342.863 84.6307 334.85 79.7398 326.469C74.5165 315.88 70.8586 305.166 69.886 293.643C69.8334 293.021 69.3816 292.278 68.8852 291.875C67.1914 290.498 66.8075 288.789 67.0771 286.724C67.3149 284.902 67.344 283.052 67.4654 281.215C68.05 280.211 68.8772 279.273 69.169 278.19C69.785 275.905 70.1203 273.544 70.5719 271.215C70.9936 269.04 71.3025 267.021 74.1294 266.32C76.0556 265.842 75.3349 264.001 74.8841 262.531C74.6665 261.821 74.4753 260.775 74.8277 260.266C81.7278 250.303 89.2554 240.911 99.5068 234.105C99.9053 233.841 100.385 233.698 101.419 233.232C95.5396 239.394 90.1121 245.083 84.6845 250.772C84.9466 251.109 85.2088 251.447 85.4709 251.785C86.3664 251.338 87.4999 251.106 88.1218 250.413C98.3889 238.982 110.767 230.1 123.112 221.156C127.163 218.221 130.956 214.929 135.542 211.261C134.192 214.139 133.187 216.453 132.041 218.693C127.064 228.423 119.847 236.311 111.629 243.366C111.028 243.882 110.464 244.44 109.564 245.097C108.837 245.722 108.431 246.23 108.024 246.737ZM87.3489 319.356C86.9236 315.158 86.3411 310.969 86.0998 306.761C85.0035 287.646 87.0755 269.295 99.3405 253.478C99.8099 252.872 99.8835 251.96 100.142 251.191C99.8091 251.003 99.4766 250.816 99.1442 250.628C97.1811 253.244 95.0401 255.746 93.2841 258.494C82.2387 275.778 82.182 294.694 85.1205 314.189C85.1101 314.324 85.1651 314.421 85.2622 314.869C85.6183 316.501 85.9744 318.133 86.2996 320.203C86.979 323.011 87.6584 325.819 88.3377 328.627C88.6666 328.552 88.9955 328.476 89.3244 328.401C88.6579 325.517 87.9914 322.632 87.3489 319.356ZM76.2735 288.385C75.8532 286.961 75.3245 285.559 75.0373 284.108C74.574 281.769 73.076 281.884 71.4604 282.546C68.5943 283.719 67.9032 288.395 70.422 290.528C72.2687 292.092 72.8487 293.932 73.218 296.201C74.0647 301.405 75.0477 306.603 76.335 311.712C77.028 314.463 78.463 317.026 79.5632 319.674C79.7761 319.586 79.9891 319.498 80.202 319.41C79.1877 315.063 78.0007 310.747 77.2016 306.361C76.1487 300.581 74.7807 294.777 76.2735 288.385Z" fill="#FFCC00"/>
<path d="M72.911 213.409C71.5485 216.021 69.1952 217.193 65.7504 217.115C62.8417 215.9 60.7778 216.563 58.9585 218.462C55.5025 222.07 51.9088 225.554 48.5957 229.287C45.5691 232.698 45.6993 232.813 49.1724 236.185C51.1425 233.837 53.1046 231.499 55.0667 229.161C55.2873 229.604 55.5079 230.047 55.765 230.863C54.3214 232.843 52.7339 234.367 51.3995 236.087C50.5309 237.207 50.0304 238.612 49.365 239.89C48.609 239.723 47.8531 239.556 46.903 239.379C46.1814 237.752 45.8635 236.024 45.074 234.547C44.0612 232.653 44.0851 231.106 45.5564 229.539C49.3451 225.502 52.9852 221.317 56.9224 217.433C60.4594 213.943 60.5988 214.084 65.2797 214.745C65.4179 214.651 65.6642 214.564 65.674 214.455C66.061 210.2 68.9944 208.293 72.4753 206.634C75.473 205.205 78.3076 203.407 81.1144 201.616C82.7496 200.572 84.0012 199.282 83.8107 196.91C83.6731 195.197 84.9562 193.932 86.8281 193.928C88.8951 193.925 89.903 195.39 89.8682 197.196C89.8344 198.954 88.6489 200.022 86.7303 200.062C86.1854 200.073 85.3927 200.135 85.1413 200.483C81.7648 205.153 76.4019 206.897 71.6503 209.397C68.6811 210.959 67.6133 212.942 67.7199 216.393C69.5061 215.339 71.1152 214.39 72.911 213.409Z" fill="#FFCC00"/>
<path d="M108.251 246.796C108.431 246.23 108.837 245.723 109.39 245.204C110.599 245.285 111.889 245.038 112.667 245.558C113.54 246.141 114.464 247.443 114.416 248.384C114.369 249.304 113.204 250.823 112.393 250.919C110.415 251.152 109.783 252.401 109.097 253.832C107.196 257.794 105.403 261.815 103.323 265.681C102.544 267.13 101.284 268.526 99.8973 269.392C98.205 270.449 97.0982 271.48 96.8457 273.597C95.8256 282.147 94.6039 290.673 93.5939 299.224C93.485 300.146 94.0631 301.336 94.6823 302.117C95.8665 303.609 96.169 305.182 94.6615 306.258C93.7638 306.899 91.8787 307.102 90.9726 306.578C89.3234 305.623 89.3539 303.929 90.4256 302.222C91.0238 301.269 91.4022 300.085 91.5547 298.961C92.8065 289.732 93.9105 280.483 95.2728 271.271C95.4394 270.145 96.6672 268.825 97.7507 268.255C100.169 266.984 101.579 265.118 102.672 262.691C104.438 258.771 106.61 255.032 108.328 251.093C108.854 249.888 108.454 248.279 108.251 246.796Z" fill="#FFCC00"/>
<path d="M123.977 105.104C124.67 104.452 125.57 103.934 125.634 103.328C126.031 99.5489 128.934 97.9314 131.575 96.044C133.227 94.8641 135.07 94.0324 135.269 91.4154C135.394 89.7634 137.092 88.8064 138.924 89.3122C140.791 89.8278 141.669 91.2249 141.33 93.1412C141.009 94.9604 139.821 96.0701 137.947 95.5451C136.356 95.0993 135.393 95.6637 134.307 96.6457C133.136 97.7044 131.885 98.7571 130.492 99.4655C128.739 100.357 128.192 101.825 127.529 103.486C127.026 104.744 126.004 106.007 124.873 106.754C123.13 107.905 121.02 108.486 119.212 109.557C117.953 110.304 116.832 111.369 115.845 112.468C114.636 113.815 113.181 114.657 111.74 113.466C110.788 112.679 110.009 111.052 110.055 109.836C110.123 108.058 112.056 106.636 113.421 107.424C117.161 109.583 119.673 106.83 122.633 105.815C123.044 105.674 123.411 105.406 123.977 105.104Z" fill="#FFCC00"/>
<path d="M122.143 176.621C118.877 174.238 115.647 172.111 112.626 169.719C111.051 168.471 109.871 166.731 108.46 165.263C107.57 164.337 106.679 163.357 105.618 162.66C103.341 161.166 100.911 159.905 98.6258 158.423C97.025 157.384 96.0034 155.922 96.3283 153.227C98.9887 157.623 103.422 158.69 106.975 161.066C108.262 161.925 109.086 163.458 110.185 164.622C111.181 165.679 112.18 166.764 113.327 167.642C116.673 170.205 120.194 172.547 123.447 175.218C125.596 176.982 126.219 179.544 125.884 182.648C124.56 180.496 123.413 178.631 122.143 176.621Z" fill="#FFCC00"/>
<path d="M34.6666 206.111C34.0481 206.518 33.5402 206.787 33.0324 207.055C33.0313 206.503 32.9348 205.928 33.06 205.407C33.1558 205.008 33.4649 204.594 33.7934 204.328C38.6392 200.402 37.7784 195.204 36.9242 190.054C36.801 189.31 36.1568 188.566 35.578 188.003C34.1326 186.596 33.9241 185.027 35.1485 183.541C36.2281 182.231 37.7666 182.05 39.1366 183.21C40.6298 184.474 40.5936 185.858 39.7071 187.663C39.005 189.092 38.4872 191.103 38.9388 192.52C40.7165 198.101 38.6714 202.268 34.6666 206.111Z" fill="#FFCC00"/>
<path d="M121.736 55.8817C121.032 55.7517 120.47 55.5352 119.687 55.268C120.608 53.8974 121.721 52.5528 122.897 51.2642C124.119 49.9247 125.287 48.7789 125.25 46.5861C125.233 45.621 127.062 44.1114 128.31 43.7613C130.052 43.2723 131.514 44.7315 131.476 46.4081C131.446 47.7337 130.36 50.1372 129.669 50.1643C125.665 50.3216 124.342 53.7846 121.736 55.8817Z" fill="#FFCC00"/>
<path d="M86.1421 158.044C84.7705 154.241 85.0758 153.664 88.9714 152.332C87.4682 155.435 87.6242 156.765 90.4493 159.283C92.9309 161.495 95.6632 163.426 98.3481 165.53C97.4057 167.007 96.1377 167.282 94.8924 166.189C91.9477 163.603 89.1224 160.88 86.1421 158.044Z" fill="#FFCC00"/>
<path d="M91.1519 73.8379C90.6668 74.038 90.2933 74.1162 89.7421 74.2669C89.3432 72.4072 90.3132 71.3302 91.927 70.3622C92.8691 69.797 93.7912 68.5769 93.9816 67.5183C94.311 65.6865 95.0314 64.4674 96.8852 64.3901C98.7298 64.3132 99.8989 65.4678 100.042 67.2627C100.198 69.2252 99.0259 70.5426 97.1276 70.6468C94.6254 70.784 92.8148 71.9242 91.1519 73.8379Z" fill="#FFCC00"/>
<path d="M40.8524 221.166C40.4275 221.386 40.028 221.386 39.4289 221.391C38.4283 217.625 37.5306 213.872 36.8994 210.074C36.7548 209.204 37.3845 208.093 37.9069 207.246C39.3082 204.975 40.8443 202.787 42.3429 200.542C42.4803 202.47 42.756 204.5 40.9808 206.263C39.0383 208.193 38.3877 210.435 39.2413 213.215C40.0118 215.723 40.3495 218.364 40.8524 221.166Z" fill="#FFCC00"/>
<path d="M91.7763 192.951C92.9945 193.047 94.3102 193.29 95.762 193.414C98.1239 195.259 100.407 197.163 102.529 199.232C102.963 199.656 102.793 200.7 102.916 201.551C98.9166 198.489 95.3952 195.793 91.7763 192.951Z" fill="#FFCC00"/>
<path d="M60.7907 189.107C61.2366 188.565 61.7561 188.177 62.4189 187.656C64.9144 190.311 67.2668 193.098 69.9503 196.278C66.1111 194.522 63.2632 192.196 60.7907 189.107Z" fill="#FFCC00"/>
<path d="M61.5984 274.437C61.7312 274.185 61.917 274.144 62.0382 274.033C62.8203 273.314 63.5884 272.581 64.361 271.852C64.9891 272.838 65.6172 273.825 66.3204 275.009C64.5347 277.185 63.0274 276.31 61.5984 274.437Z" fill="#FFCC00"/>
<path d="M66.4485 220.851C68.0578 217.752 71.1927 216.658 74.5365 215.579C72.0342 217.326 69.3319 219.07 66.4485 220.851Z" fill="#FFCC00"/>
<path d="M35.6663 250.64C36.1903 250.465 36.7235 250.469 37.4568 250.47C37.4644 251.269 37.2721 252.07 36.9364 253.468C36.3566 252.249 36.0161 251.534 35.6663 250.64Z" fill="#FFCC00"/>
<path d="M95.0428 205.062C95.3748 204.409 95.8947 203.732 96.4888 202.877C97.0049 202.925 97.4469 203.152 98.2214 203.548C97.0226 204.145 96.1266 204.592 95.0428 205.062Z" fill="#FFCC00"/>
<path d="M38.5353 227.658C38.4539 228.41 38.2269 229.242 37.8766 230.214C37.9654 229.482 38.1777 228.611 38.5353 227.658Z" fill="#FFCC00"/>
<path d="M102.147 167.798C101.285 167.931 100.321 167.925 99.1152 167.902C99.9311 167.811 100.988 167.735 102.147 167.798Z" fill="#FFCC00"/>
<path d="M84.0836 207.206C83.7782 207.568 83.3124 207.941 82.7373 208.213C83.0597 207.813 83.4914 207.514 84.0836 207.206Z" fill="#FFCC00"/>
<path d="M119.918 59.8674C119.857 59.4485 119.771 58.821 119.795 58.0967C119.901 58.5529 119.897 59.1059 119.918 59.8674Z" fill="#FFCC00"/>
<path d="M98.5648 170.175C98.3878 169.813 98.2108 169.45 97.9603 168.9C97.8817 168.581 97.9366 168.484 98.1382 168.406C98.763 168.653 99.3011 168.914 99.807 169.331C99.3715 169.716 98.9681 169.946 98.5648 170.175Z" fill="#FFCC00"/>
<path d="M87.4558 190.36C88.0161 190.517 88.6698 190.824 89.381 191.316C88.8087 191.171 88.179 190.841 87.4558 190.36Z" fill="#FFCC00"/>
<path d="M66.5544 260.463C66.4823 261.027 66.2693 261.707 65.9264 262.512C66.0021 261.951 66.2078 261.265 66.5544 260.463Z" fill="#FFCC00"/>
<path d="M39.6439 239.933C39.5534 240.355 39.3224 240.865 38.9211 241.427C39.0016 240.993 39.2525 240.507 39.6439 239.933Z" fill="#FFCC00"/>
<path d="M67.683 86.1167C67.4029 86.4151 66.9568 86.7142 66.3324 87.004C66.6085 86.7024 67.0627 86.4099 67.683 86.1167Z" fill="#FFCC00"/>
<path d="M59.4549 187.662C59.8094 187.848 60.2478 188.159 60.6465 188.648C60.2508 188.48 59.8948 188.133 59.4549 187.662Z" fill="#FFCC00"/>
<path d="M99.1253 191.904C99.5342 192.01 100.03 192.256 100.573 192.673C100.151 192.577 99.6816 192.31 99.1253 191.904Z" fill="#FFCC00"/>
<path d="M85.986 209.71C86.2793 209.393 86.7467 209.065 87.4051 208.751C87.1174 209.076 86.6388 209.388 85.986 209.71Z" fill="#FFCC00"/>
<path d="M75.634 82.9348C75.4957 83.1414 75.2085 83.3412 74.8245 83.459C74.9802 83.2274 75.2327 83.0777 75.634 82.9348Z" fill="#FFCC00"/>
<path d="M86.4234 189.806C86.6714 189.763 87.0027 189.852 87.3567 190.081C87.0885 190.126 86.7975 190.032 86.4234 189.806Z" fill="#FFCC00"/>
<path d="M37.3926 239.754C37.1987 239.538 36.984 239.16 36.8024 238.608C37.0143 238.82 37.1931 239.207 37.3926 239.754Z" fill="#FFCC00"/>
<path d="M112.798 66.9344C112.522 66.8411 112.246 66.7478 111.861 66.5538C111.999 66.2748 112.244 66.0964 112.645 65.9207C112.8 66.149 112.798 66.3747 112.796 66.7687C112.796 66.9369 112.798 66.9344 112.798 66.9344Z" fill="#FFCC00"/>
<path d="M103.198 168.866C102.898 168.767 102.599 168.505 102.268 168.086C102.557 168.188 102.877 168.445 103.198 168.866Z" fill="#FFCC00"/>
<path d="M96.7852 73.8535C96.6536 74.0779 96.3672 74.3059 95.9792 74.449C96.1285 74.1952 96.3794 74.0261 96.7852 73.8535Z" fill="#FFCC00"/>
<path d="M42.1226 239.386C41.977 239.013 41.9691 238.513 41.9903 237.764C42.0996 238.096 42.1801 238.677 42.1226 239.386Z" fill="#FFCC00"/>
<path d="M79.8262 81.1973C79.7115 81.3599 79.4275 81.5221 78.9759 81.6865C79.0911 81.5247 79.3741 81.3608 79.8262 81.1973Z" fill="#FFCC00"/>
<path d="M74.8814 215.58C74.9729 215.413 75.2203 215.24 75.6217 215.051C75.5295 215.215 75.2834 215.394 74.8814 215.58Z" fill="#FFCC00"/>
<path d="M94.6524 74.8772C94.5468 75.039 94.2787 75.1999 93.8505 75.3667C93.957 75.2071 94.2235 75.0418 94.6524 74.8772Z" fill="#FFCC00"/>
<path d="M12.3764 218.192C12.3383 218.115 12.59 218.083 12.7098 218.124C12.8296 218.166 12.6432 218.327 12.6432 218.327C12.6432 218.327 12.4146 218.269 12.3764 218.192Z" fill="#FFCC00"/>
<path d="M71.898 84.4353C71.8833 84.5497 71.6986 84.6609 71.3511 84.791C71.3682 84.684 71.5481 84.5581 71.898 84.4353Z" fill="#FFCC00"/>
<path d="M118.162 62.8784C118.266 62.9134 118.35 63.1193 118.421 63.4954C118.32 63.4602 118.231 63.2548 118.162 62.8784Z" fill="#FFCC00"/>
<path d="M64.3614 268.749C64.4497 268.835 64.431 269.045 64.3173 269.383C64.233 269.299 64.2437 269.086 64.3614 268.749Z" fill="#FFCC00"/>
<path d="M65.619 263.182C65.7474 263.246 65.7402 263.377 65.6096 263.579C65.4593 263.521 65.4584 263.387 65.619 263.182Z" fill="#FFCC00"/>
<path d="M68.1292 261.291C68.0674 261.194 68.1273 260.983 68.309 260.659C68.3708 260.756 68.3108 260.967 68.1292 261.291Z" fill="#FFCC00"/>
<path d="M39.3747 222.606C39.4857 222.632 39.5774 222.823 39.6668 223.177C39.5615 223.15 39.4584 222.96 39.3747 222.606Z" fill="#FFCC00"/>
<path d="M87.1151 78.0477C87.1088 78.0171 87.1609 78.0614 87.1454 78.0726C87.13 78.0839 87.1214 78.0782 87.1151 78.0477Z" fill="#FFCC00"/>
<path d="M39.3176 245.595C39.2523 245.633 39.2835 245.381 39.3242 245.331C39.4492 245.368 39.4553 245.46 39.3176 245.595Z" fill="#FFCC00"/>
<path d="M96.502 202.594C96.4064 202.648 96.236 202.579 95.9783 202.402C96.0697 202.352 96.2485 202.412 96.502 202.594Z" fill="#FFCC00"/>
<path d="M77.1901 82.3398C77.1749 82.4505 76.9937 82.5585 76.653 82.6843C76.6704 82.5804 76.8473 82.4588 77.1901 82.3398Z" fill="#FFCC00"/>
<path d="M41.2256 222.811C41.1265 222.789 41.0399 222.617 40.9554 222.296C41.051 222.32 41.1445 222.49 41.2256 222.811Z" fill="#FFCC00"/>
<path d="M70.0485 176.424C70.6702 176.717 71.3041 177.205 72.0143 177.847C71.4139 177.54 70.7373 177.08 70.0485 176.424Z" fill="#FFCC00"/>
<path d="M74.8383 180.195C75.2927 180.282 75.7824 180.554 76.3601 180.972C75.9233 180.872 75.3984 180.626 74.8383 180.195Z" fill="#FFCC00"/>
<path d="M73.2383 179.051C73.6933 179.151 74.1732 179.442 74.7378 179.88C74.3028 179.765 73.783 179.504 73.2383 179.051Z" fill="#FFCC00"/>
<path d="M89.6196 189.177C90.0809 189.264 90.5833 189.539 91.18 189.959C90.7364 189.858 90.1985 189.612 89.6196 189.177Z" fill="#FFCC00"/>
<path d="M59.8558 285.512C60.0384 285.48 60.0882 285.615 59.9825 285.843C59.8983 285.82 59.8636 285.734 59.8558 285.512Z" fill="#FFCC00"/>
<path d="M113.831 67.905C113.626 68.2334 113.378 68.3981 112.976 68.5769C112.816 68.1769 112.808 67.7628 112.799 67.1415C112.798 66.9344 112.796 66.9369 112.795 66.9379C113.125 67.2064 113.457 67.4739 113.831 67.905Z" fill="#FFCC00"/>
<path d="M86.3151 319.984C86.5516 319.762 86.7726 319.759 87.1593 319.752C87.9915 322.633 88.658 325.517 89.3245 328.401C88.9956 328.476 88.6667 328.552 88.3378 328.627C87.6584 325.819 86.9791 323.011 86.3151 319.984Z" fill="#FFCC00"/>
<path d="M85.1698 314.116C85.2983 314.123 85.3354 314.219 85.3079 314.406C85.1652 314.421 85.1102 314.324 85.1698 314.116Z" fill="#FFCC00"/>
</svg>
