<svg width="512" height="512" viewBox="0 0 512 512" fill="none" xmlns="http://www.w3.org/2000/svg">
<g clip-path="url(#clip0_3300_97)">
<rect width="512" height="512" fill="#FFCC00"/>
<path d="M229.698 344.112C229.698 344.112 229.677 343.86 229.867 343.623C230.269 342.707 230.482 342.027 230.695 341.347C233.488 337.996 236.183 334.557 239.106 331.323C241.059 329.161 241.296 328.843 240.122 325.594C232.431 331.421 226.385 338.416 224.585 348.036C223.58 353.405 223.802 359.003 223.516 364.9C223.668 365.659 223.776 366.017 223.856 366.511C223.864 366.734 223.898 366.82 223.907 367.125C224.925 372.043 225.969 376.74 227.014 381.438C226.83 381.506 226.645 381.574 226.461 381.642C225.206 378.638 223.95 375.635 222.695 372.631C222.452 372.614 222.21 372.597 221.968 372.58C221.74 373.251 221.263 373.949 221.334 374.586C221.499 376.057 221.663 377.63 222.301 378.929C224.931 384.283 227.744 389.546 230.473 394.851C230.867 395.618 231.168 396.433 231.811 397.913C228.72 395.598 227.55 392.446 224.546 391.2C224.62 392.282 224.984 393.114 225.521 393.813C227.883 396.883 230.266 399.938 232.698 402.952C235.022 405.833 236.986 409.183 241.123 409.868C241.999 411.31 242.633 412.981 241.099 414.134C240.161 414.84 238.109 415.358 237.445 414.835C236.437 414.04 236.212 412.261 235.633 410.91C235.211 409.925 234.923 408.824 234.287 407.998C228.28 400.203 221.979 392.623 216.222 384.65C209.572 375.439 204.764 365.297 203.177 353.89C201.513 341.925 204.063 330.841 210.772 320.501C211.853 320.555 212.609 320.722 213.484 320.99C213.957 321.232 214.533 321.586 214.633 321.482C218.574 317.38 222.473 313.237 226.459 309.012C225.408 307.078 224.145 307.056 222.69 308.749C221.775 309.816 220.853 310.877 219.831 311.715C219.508 311.047 219.287 310.604 219.106 309.98C220.493 305.808 223.337 303.107 226.73 300.823C227.835 300.08 228.745 299.046 229.963 298.15C233.195 298.192 235.549 297.021 237.098 294.377C240.149 292.639 243.2 290.9 246.549 289.238C247.312 288.941 247.778 288.568 248.244 288.195C249.843 287.174 251.295 286.249 252.016 284.15C252.838 281.76 256.947 281.337 259.874 283.242C260.236 283.58 260.406 283.649 260.577 283.718C260.577 283.718 260.456 283.792 260.435 283.924C259.895 284.732 259.375 285.409 258.855 286.086C256.555 287.292 254.255 288.499 251.584 289.721C250.747 290.065 250.279 290.392 249.812 290.72C246.59 292.476 243.369 294.233 239.807 296.028C239.22 296.24 238.973 296.413 238.726 296.586C238.726 296.586 238.719 296.561 238.528 296.569C235.193 297.658 232.058 298.752 230.267 301.888C228.975 303.048 227.684 304.207 226.23 305.512C226.954 306.397 227.535 307.106 228.217 307.938C228.913 307.384 229.677 307.071 229.944 306.518C232.661 300.901 238.786 299.975 243.243 296.769C243.438 296.629 243.815 296.511 243.986 296.604C247.217 298.362 249.469 295.925 251.891 294.656C258.823 291.023 265.675 287.238 272.543 283.486C274.155 282.605 275.569 281.565 273.921 279.213C273.12 279.925 272.426 280.542 271.732 281.158C272.001 280.889 272.269 280.619 272.538 280.349C269.96 278.28 267.383 276.212 264.666 273.822C264.03 273.256 263.534 273.01 263.038 272.764C260.703 272.056 260.329 272.195 259.686 274.261C258.31 274.29 256.995 274.047 255.679 273.805C255.011 273.445 254.343 273.085 253.5 272.428C252.67 271.824 252.016 271.517 251.362 271.209C251.362 271.209 251.393 271.177 251.364 271.059C251.003 270.852 250.671 270.763 250.34 270.674C241.382 266.265 232.842 261.34 227.554 251.955C224.543 255.031 224.101 258.693 224.603 262.466C224.862 264.416 225.842 266.271 226.386 268.478C225.756 269.177 225.237 269.565 224.717 269.953C224.717 269.953 224.615 269.931 224.651 269.7C224.248 269.159 223.809 268.848 223.371 268.537C221.025 268.595 221.44 270.087 222.29 271.17C223.858 273.169 225.617 275.047 227.475 276.783C229.657 278.821 232.029 280.654 234.072 283.128C231.319 281.91 228.566 280.692 225.813 279.474C225.638 279.761 225.464 280.048 225.289 280.335C227.467 281.872 229.645 283.41 231.823 284.947C231.789 285.093 231.754 285.239 231.72 285.385C230.794 285.065 229.851 284.79 228.947 284.42C223.122 282.033 217.674 278.998 213.212 274.495C203.753 264.95 202.798 251.475 211.179 240.351C214.43 236.036 218.512 232.305 222.486 228.597C224.255 226.946 225.723 225.364 225.877 222.933C226.088 219.597 227.864 217.528 230.707 215.966C240.343 210.67 249.886 205.206 259.556 199.973C260.642 199.385 262.507 199.408 263.661 199.927C267.236 201.536 270.286 201.5 273.789 199.31C280.123 195.348 286.774 191.886 293.345 188.313C294.995 187.416 295.762 186.283 295.909 184.406C296.17 181.07 299.172 178.763 302.497 178.622C303.794 178.567 305.347 177.845 306.278 176.919C317.676 165.584 325.377 151.969 330.646 136.887C330.82 136.39 330.988 135.889 331.19 135.403C331.244 135.272 331.412 135.188 332.033 134.62C331.592 136.661 331.401 138.24 330.906 139.717C329.313 144.472 327.564 149.175 325.989 153.935C325.735 154.704 326.058 155.663 326.115 156.534C327.077 156.398 328.369 156.607 328.94 156.061C330.566 154.508 332.3 152.847 333.276 150.874C337.561 142.211 339.164 132.977 338.427 123.337C338.425 123.304 338.557 123.261 339.047 122.99C339.439 126.015 339.972 128.869 340.137 131.744C340.302 134.638 340.207 137.56 340.033 140.457C339.854 143.442 339.371 146.408 339.152 149.391C338.96 152.017 337.056 154.4 337.384 157.089C337.781 157.176 338.178 157.263 338.575 157.35C339.187 155.314 340.017 153.316 340.371 151.236C341.506 144.573 342.542 137.889 343.406 131.186C343.538 130.167 342.728 128.878 342.046 127.936C340.865 126.305 340.483 124.725 341.89 123.166C343.323 121.579 345.075 121.701 346.605 122.995C348.218 124.359 348.141 125.941 346.923 127.672C346.271 128.599 345.65 129.798 345.634 130.882C345.478 141.901 343.773 152.595 339.752 162.918C339.232 164.253 339.641 166.22 340.218 167.653C341.195 170.079 341.222 172.218 339.763 174.392C335.356 180.955 331.164 187.676 326.474 194.029C324.566 196.613 323.014 199.082 322.875 202.272C322.709 206.092 321.006 208.918 317.819 210.997C311.703 214.985 305.628 219.036 299.556 223.091C297.876 224.213 296.301 224.249 294.339 223.603C292.945 223.145 291.033 223.272 289.68 223.874C286.395 225.337 283.293 227.215 280.133 228.955C278.04 230.107 275.585 230.755 275.088 233.812C274.98 234.473 272.871 235.251 271.721 235.196C270.066 235.116 269.196 233.536 269.884 232.109C270.38 231.079 271.761 230.335 272.904 229.795C274.008 229.274 275.432 229.409 276.507 228.853C280.647 226.711 284.754 224.493 288.77 222.129C290.788 220.941 292.612 220.885 294.781 221.653C295.849 222.032 297.505 221.986 298.409 221.392C304.876 217.142 311.212 212.692 317.604 208.328C320.029 206.673 320.4 204.315 320.153 201.732C314.767 205.757 309.456 209.775 304.086 213.712C302.243 215.062 300.229 216.176 298.336 217.461C296.4 218.775 294.547 219.926 292.019 218.748C291.346 218.434 290.139 218.909 289.325 219.317C283.423 222.268 277.482 225.157 271.716 228.359C268.918 229.912 266.396 230.465 263.494 228.442C269.585 225.311 275.69 222.171 281.795 219.032C278.071 218.036 246.841 233.394 245.066 236.47C245.811 236.634 246.485 236.782 246.503 236.786C247.596 238.934 248.09 241.109 249.444 242.328C252.69 245.25 256.319 247.752 259.862 250.33C260.174 250.557 260.984 250.098 261.798 250.023C262.211 250.45 262.388 250.812 262.566 251.359C263.455 252.062 264.332 252.605 265.255 253.053C265.333 253.091 265.972 252.277 265.926 252.223C265.369 251.575 264.733 250.996 263.978 250.287C263.301 249.914 262.763 249.653 262.225 249.393C262.35 249.252 262.475 249.112 262.978 248.945C264.321 248.925 265.285 248.931 266.25 248.937C266.25 248.937 266.229 248.964 266.264 249.103C266.599 249.505 266.898 249.767 267.198 250.029C267.351 250.345 267.652 250.669 267.634 250.974C267.355 255.597 270.45 257.684 273.846 259.828C277.096 261.88 280.036 264.423 283.243 266.848C284.487 265.101 283.379 263.625 282.052 262.595C278.724 260.012 275.259 257.603 271.788 255.212C270.503 254.328 269.45 253.549 270.966 251.405C275.286 254.532 279.688 257.533 283.858 260.828C285.538 262.156 286.057 263.937 285.033 266.436C284.327 268.156 285.32 270.572 285.577 272.888C286.609 272.606 286.991 272.601 287.242 272.418C293.945 267.527 296.679 257.796 293.328 250.192C292.835 249.073 291.45 248.358 290.516 247.418C289.595 246.49 287.9 245.457 287.963 244.571C288.331 239.422 284.895 237.067 281.364 234.66C280.634 234.162 279.958 233.585 279.378 232.835C283.276 233.091 286.234 236.83 291.086 235.784C289.613 234.629 288.657 233.879 287.453 232.935C288.108 232.672 288.47 232.376 288.702 232.455C298.655 235.864 306.967 241.351 311.191 251.432C315.612 261.981 312.936 271.611 306.606 280.532C300.435 289.228 291.76 294.994 282.754 300.233C276.998 303.582 270.921 306.377 265.02 309.484C264.286 309.87 263.634 310.555 263.15 311.247C260.711 314.733 256.939 316.118 253.035 314.923C252.239 314.679 251.39 314.607 250.27 314.401C250.804 315.426 251.151 316.091 251.622 316.996C249.638 318.429 247.768 319.875 245.801 321.174C243.822 322.479 242.315 324.072 242.883 326.576C243.789 330.566 240.872 332.405 238.682 334.729C236.646 336.89 234.707 339.142 232.456 341.564C232.127 341.983 232.067 342.194 232.008 342.404C231.576 344.171 231.175 345.946 230.706 347.703C230.206 349.581 229.394 351.371 230.974 353.257C231.374 353.735 230.812 355.019 230.469 355.872C229.617 354.825 228.989 353.839 228.361 352.852C227.588 353.581 226.82 354.314 226.038 355.033C225.917 355.144 225.731 355.185 225.575 355.258C224.613 352.816 226.072 351.691 228.202 350.535C228.431 350.045 228.45 349.835 228.468 349.626C228.75 348.088 229.031 346.55 229.494 344.758C229.74 344.377 229.747 344.246 229.698 344.112ZM238.758 261.082C238.758 261.082 238.803 261.01 238.874 261.381C239.398 261.626 239.923 261.872 240.789 262.215C242.315 263.255 243.836 264.302 245.368 265.333C248.702 267.577 252.247 267.273 255.492 264.109C254.485 263.933 253.508 264.171 252.535 264.155C251.046 264.13 249.215 264.442 248.131 263.714C243.537 260.63 239.116 257.279 234.737 253.889C233.001 252.545 231.398 250.934 232.232 248.288C232.329 247.98 231.799 247.474 231.56 247.06C231.29 247.047 231.021 247.034 230.752 247.021C230.571 248.167 229.918 249.512 230.301 250.419C231.304 252.792 232.761 254.972 234.061 257.62C234.737 258.08 235.414 258.54 236.373 259.072C236.653 259.334 236.933 259.597 237.263 260.242C237.783 260.504 238.303 260.765 238.758 261.082ZM255.658 271.208C256.995 272.2 258.174 271.99 259.326 270.861C256.512 267.741 254.964 267.251 252.38 268.68C252.794 269.131 253.186 269.56 253.661 270.366C254.199 270.612 254.736 270.858 255.658 271.208ZM239.447 213.744C236.464 215.746 233.384 217.623 230.545 219.812C229.402 220.694 228.79 222.263 227.936 223.519C228.225 223.753 228.514 223.988 228.803 224.222C232.589 220.704 238.547 219.854 240.892 213.982C242.131 213.693 243.359 213.342 244.611 213.13C246.268 212.85 248.135 213.079 249.575 212.387C254.569 209.988 259.423 207.296 264.312 204.682C264.933 204.351 265.447 203.822 266.011 203.384C265.95 203.078 265.889 202.773 265.829 202.467C264.279 202.367 262.426 201.664 261.228 202.266C253.999 205.896 246.92 209.825 239.447 213.744ZM307.203 206.115C310.283 203.764 313.452 201.52 316.425 199.041C324.973 191.915 331.963 183.476 337.257 173.67C338.108 172.094 339.194 170.416 337.574 168.831C334.05 174.033 330.816 179.401 327.002 184.319C317.456 196.624 305.073 205.56 291.777 213.414C288.393 215.413 285.363 216.542 281.527 214.899C280.25 214.352 278.541 214.813 277.03 214.813C277.012 215.115 276.995 215.418 276.977 215.72C279.531 216.547 282.036 217.675 284.654 218.095C286.396 218.374 288.611 218.157 290.075 217.271C295.794 213.814 301.299 210.001 307.203 206.115ZM261.585 308.539C261.25 308.148 260.693 307.373 260.612 307.421C258.115 308.865 255.665 310.391 253.036 312.009C256.884 314.296 260.974 312.642 261.585 308.539ZM303.824 182.534C304.182 182.132 304.539 181.731 304.963 181.254C300.039 179.502 297.222 181.836 298.085 186.943C299.957 185.501 301.734 184.132 303.824 182.534ZM343.941 126.532C344.636 126.02 345.33 125.508 346.025 124.996C345.358 124.638 344.692 124.279 344.025 123.921C343.882 124.737 343.74 125.553 343.941 126.532ZM240.385 412.2C240.184 410.651 239.192 410.283 238.016 410.969C237.557 411.237 237.159 412.633 237.403 412.898C238.357 413.936 239.486 413.963 240.385 412.2Z" fill="#040402"/>
<path d="M176.338 299.115C173.75 298.075 173.021 295.986 172.555 293.385C170.546 282.158 169.727 270.864 169.675 259.467C169.667 257.52 168.368 255.241 167 253.708C164.222 250.595 163.996 247.342 164.808 243.486C167.425 231.053 170.644 218.841 176.469 207.452C176.976 206.46 177.56 205.224 177.392 204.222C176.854 201.019 178.103 198.654 180.055 196.302C180.765 195.445 180.941 193.948 180.941 192.743C180.941 190.53 181.874 189.166 183.989 188.785C185.693 188.477 187.808 190.264 187.793 192.071C187.776 194.15 186.774 195.501 184.439 195.643C182.348 195.77 179.113 200.157 179.61 202.576C180.248 205.682 179.238 208.191 177.912 210.854C172.171 222.391 168.962 234.711 167.158 247.405C166.982 248.65 167.807 250.365 168.711 251.376C171.563 254.565 172.251 258.14 171.967 262.302C171.68 266.504 171.945 270.755 172.162 274.975C172.229 276.284 172.929 277.561 173.621 278.603C173.621 273.271 173.55 267.937 173.634 262.606C173.876 247.278 176.738 232.517 183.519 218.664C185.005 215.63 184.389 212.689 183.151 209.996C181.317 206.01 181.951 202.839 184.927 199.75C188.22 196.331 191.042 192.418 194.564 189.273C197.53 186.624 199.367 183.763 199.459 179.841C199.511 177.659 200.535 176.258 202.391 175.217C204.385 174.099 206.291 172.821 208.219 171.586C209.682 170.648 211.087 169.855 211.247 167.661C211.391 165.699 213.134 165.006 215.015 165.282C217.026 165.577 217.802 166.938 217.689 168.873C217.573 170.859 216.309 172.385 214.551 172.034C212.049 171.534 210.579 172.854 208.861 173.987C208.126 174.471 207.465 175.119 206.67 175.455C202.766 177.108 201.273 180.194 201.348 184.591C204.924 184.812 208.428 186.696 212.228 184.001C215.433 181.728 219.075 180.015 222.666 178.364C225.027 177.279 226.427 175.667 227.322 173.32C228.004 171.534 228.975 169.858 230.164 168.073C230.957 167.714 231.403 167.415 231.849 167.116C232.844 166.69 233.838 166.265 235.173 165.806C235.699 165.661 235.883 165.55 236.068 165.438C236.834 165.09 237.599 164.741 238.643 164.466C239.209 164.341 239.496 164.141 239.783 163.942C239.906 163.81 240.056 163.728 240.523 163.681C240.994 163.558 241.175 163.45 241.356 163.342C241.731 163.128 242.105 162.914 242.812 162.692C243.428 162.522 243.711 162.36 243.995 162.198C246.24 161.179 248.485 160.161 250.945 159.102C251.161 159.062 251.109 159.017 251.109 159.017C251.87 157.914 252.632 156.811 253.657 155.451C254.293 155.116 254.667 155.038 255.04 154.96C255.007 155.622 254.974 156.285 254.925 157.282C255.833 156.951 256.557 156.686 257.646 156.392C258.279 156.2 258.547 156.039 258.815 155.878C259.066 155.708 259.317 155.539 259.824 155.451C260.367 155.306 260.654 155.078 260.94 154.85C265.754 152.402 270.568 149.955 275.675 147.581C276.246 147.748 276.522 147.841 276.799 148.142C276.808 148.763 276.816 149.177 276.712 149.733C272.992 151.706 269.45 153.685 265.764 155.341C255.253 160.06 244.698 164.68 234.127 169.262C231.679 170.323 230.558 172.069 230.268 175.055C247.762 167.349 264.934 159.887 281.546 151.234C281.515 150.953 281.485 150.672 281.454 150.391C280.261 149.95 279.068 149.509 277.831 148.905C277.457 148.474 277.125 148.206 276.795 147.77C276.798 147.375 276.8 147.149 276.801 146.923C278.553 147.128 280.304 147.333 282.378 147.575C282.378 146.7 282.378 145.889 282.406 144.702C282.35 144.119 282.266 143.913 282.182 143.708C281.434 141.124 280.076 138.458 283.532 136.351C284.47 136.535 285.032 136.752 285.594 136.968C285.133 137.57 284.673 138.172 283.948 138.984C283.771 139.821 283.857 140.448 283.943 141.076C284.646 143.508 285.35 145.941 286.19 148.843C288.649 147.117 291.009 145.503 293.308 143.805C293.673 143.536 293.964 142.883 293.943 142.423C293.856 140.445 294.983 139.346 296.273 138.018C297.185 137.079 297.487 135.196 297.439 133.756C297.361 131.447 297.938 129.787 299.8 128.287C302.193 126.358 304.32 124.096 306.519 121.934C308.03 120.449 309.895 119.266 309.2 116.448C309.014 115.691 310.766 113.77 311.838 113.583C312.907 113.395 314.969 114.48 315.27 115.428C315.64 116.593 314.976 119.166 314.17 119.448C309.09 121.227 306.626 125.884 302.892 129.094C299.705 131.835 299.826 131.975 300.064 133.893C304.384 136.133 306.688 133.089 309.193 130.553C322.9 116.676 333.682 100.805 341.605 82.9866C341.813 82.5185 342.059 82.0672 342.59 81C342.752 82.1431 342.92 82.6687 342.885 83.1807C341.503 103.729 334.548 122.13 321.66 138.25C320.692 139.461 319.78 139.903 318.083 139.557C314.617 138.85 313.265 140.171 313.197 143.72C313.123 147.643 311.555 149.296 307.659 149.559C304.066 149.801 301.67 151.639 301.566 155.206C301.446 159.326 299.217 161.419 296.059 163.452C281.36 172.914 265.738 180.654 250.139 188.447C240.443 193.292 230.805 198.246 222.181 204.905C220.441 206.248 218.766 207.692 217.18 209.213C214.913 211.387 213.773 213.919 214.237 217.257C214.923 222.197 212.789 225.632 207.933 226.722C202.249 227.998 199.407 231.57 197.444 236.719C191.43 252.486 191.278 268.739 192.923 285.184C194.087 296.811 196.937 308.05 200.792 319.415C200.984 320.16 201.199 320.538 201.413 320.915C201.737 321.429 202.06 321.942 202.738 322.415C203.322 321.865 203.553 321.355 203.784 320.845C203.602 319.202 203.55 317.53 203.2 315.923C202.889 314.494 202.248 313.135 201.876 311.41C202.227 310.242 202.454 309.41 202.681 308.577C203.006 307.293 203.331 306.009 203.662 304.37C203.577 303.823 203.486 303.632 203.394 303.44C203.329 303.211 203.264 302.982 203.414 302.57C204.028 302.386 204.427 302.386 204.827 302.386C204.885 302.552 204.943 302.719 204.977 303.165C205.04 303.617 205.127 303.789 205.213 303.962C205.203 305.284 205.712 306.98 205.082 307.856C203.468 310.099 203.538 312.15 204.591 314.465C205.131 315.654 205.507 316.917 205.959 318.58C205.969 319.513 205.977 320.013 205.985 320.513C205.206 322.331 204.428 324.149 203.467 326.174C203.283 326.381 203.252 326.633 203.252 326.633C202.789 328.135 202.325 329.637 201.559 331.306C200.724 331.469 200.19 331.465 199.657 331.461C197.579 326.051 195.472 320.653 193.444 315.224C192.894 313.751 192.41 312.09 190.458 312.795C188.682 313.436 188.773 315.049 189.427 316.591C192.544 323.946 195.716 331.277 198.74 338.67C199.371 340.213 199.701 341.971 199.751 343.643C199.886 348.192 199.797 352.749 199.797 357.785C198.917 356.429 198.121 355.35 197.476 354.186C190.449 341.507 185.424 328.014 181.108 314.217C180.663 312.795 179.461 311.258 178.181 310.504C167.89 304.441 170.646 307.599 168.346 295.83C167.941 293.759 167.718 291.642 167.158 289.616C166.888 288.637 166.183 287.65 165.41 286.964C163.885 285.609 163.491 283.924 164.754 282.59C165.558 281.741 167.807 281.094 168.511 281.601C169.471 282.292 170.371 284.642 169.893 285.448C168.627 287.584 169.263 289.514 169.579 291.521C170.043 294.474 170.84 297.384 171.157 300.348C171.449 303.073 172.613 304.908 175.078 306.069C176.486 306.731 177.784 307.625 179.771 308.066C178.93 305.101 178.09 302.136 176.92 299.127C176.59 299.083 176.338 299.115 176.338 299.115ZM201.746 191.1C202.727 190.298 203.709 189.495 204.8 188.603C201.857 187.201 199.713 187.618 197.728 189.891C194.025 194.133 190.173 198.246 186.33 202.364C184.43 204.399 184.193 206.416 185.517 208.084C190.828 202.506 196.144 196.922 201.746 191.1ZM175.387 287.069C174.906 284.902 175.332 282.413 173.274 280.413C173.031 281.05 172.838 281.298 172.868 281.514C173.54 286.302 174.16 291.1 174.995 295.86C175.149 296.734 176.195 297.451 176.83 298.24C176.998 298.12 177.167 297.999 177.335 297.879C176.718 294.426 176.1 290.972 175.387 287.069ZM185.487 193.443C185.485 192.601 185.622 191.716 185.388 190.944C185.324 190.731 183.996 190.601 183.539 190.892C183.112 191.163 182.744 192.437 182.92 192.583C183.538 193.097 184.402 193.315 185.487 193.443ZM215.35 167.25C214.484 167.618 213.618 167.985 212.752 168.352C213.338 168.958 213.924 169.564 214.509 170.17C214.885 169.3 215.261 168.43 215.35 167.25ZM168.212 285.236C168.001 284.44 167.79 283.644 167.579 282.848C167.001 283.219 166.422 283.59 165.844 283.962C166.515 284.452 167.185 284.942 168.212 285.236Z" fill="#050402"/>
<path d="M272.024 327.737C266.886 334.003 261.888 340.343 258.528 347.824C254.143 357.583 253.024 367.934 252.571 378.448C252.029 391.044 253.691 403.416 256.402 415.658C257.436 420.327 259.034 424.871 260.365 429.476C260.45 429.769 260.442 430.089 260.546 431C253.459 423.863 248.631 415.85 243.74 407.469C238.516 396.88 234.859 386.166 233.886 374.643C233.833 374.021 233.382 373.278 232.885 372.875C231.191 371.498 230.807 369.789 231.077 367.724C231.315 365.902 231.344 364.052 231.465 362.215C232.05 361.211 232.877 360.273 233.169 359.19C233.785 356.905 234.12 354.544 234.572 352.215C234.994 350.04 235.302 348.021 238.129 347.32C240.056 346.842 239.335 345.001 238.884 343.531C238.666 342.821 238.475 341.775 238.828 341.266C245.728 331.303 253.255 321.911 263.507 315.105C263.905 314.841 264.385 314.698 265.419 314.232C259.54 320.394 254.112 326.083 248.684 331.772C248.947 332.109 249.209 332.447 249.471 332.785C250.366 332.338 251.5 332.106 252.122 331.413C262.389 319.982 274.767 311.1 287.112 302.156C291.163 299.221 294.956 295.929 299.542 292.261C298.192 295.139 297.187 297.453 296.041 299.693C291.064 309.423 283.847 317.311 275.629 324.366C275.028 324.882 274.464 325.44 273.564 326.097C272.837 326.722 272.431 327.23 272.024 327.737ZM251.349 400.356C250.924 396.158 250.341 391.969 250.1 387.761C249.004 368.646 251.076 350.295 263.34 334.478C263.81 333.872 263.883 332.96 264.142 332.191C263.809 332.003 263.477 331.816 263.144 331.628C261.181 334.244 259.04 336.746 257.284 339.494C246.239 356.778 246.182 375.694 249.12 395.189C249.11 395.324 249.165 395.421 249.262 395.869C249.618 397.501 249.974 399.133 250.3 401.203C250.979 404.011 251.658 406.819 252.338 409.627C252.667 409.552 252.996 409.476 253.324 409.401C252.658 406.517 251.991 403.632 251.349 400.356ZM240.274 369.385C239.853 367.961 239.325 366.559 239.037 365.108C238.574 362.769 237.076 362.884 235.46 363.546C232.594 364.719 231.903 369.395 234.422 371.528C236.269 373.092 236.849 374.932 237.218 377.201C238.065 382.405 239.048 387.603 240.335 392.712C241.028 395.463 242.463 398.026 243.563 400.674C243.776 400.586 243.989 400.498 244.202 400.41C243.188 396.063 242.001 391.747 241.202 387.361C240.149 381.581 238.781 375.777 240.274 369.385Z" fill="#070704"/>
<path d="M236.911 294.409C235.549 297.021 233.195 298.193 229.75 298.115C226.842 296.9 224.778 297.563 222.959 299.462C219.502 303.07 215.909 306.554 212.596 310.287C209.569 313.698 209.699 313.813 213.172 317.185C215.142 314.837 217.105 312.499 219.067 310.161C219.287 310.604 219.508 311.047 219.765 311.863C218.321 313.843 216.734 315.367 215.399 317.087C214.531 318.207 214.03 319.612 213.365 320.89C212.609 320.723 211.853 320.556 210.903 320.379C210.181 318.752 209.863 317.024 209.074 315.547C208.061 313.653 208.085 312.106 209.556 310.539C213.345 306.502 216.985 302.317 220.922 298.433C224.459 294.943 224.599 295.084 229.28 295.745C229.418 295.651 229.664 295.564 229.674 295.455C230.061 291.2 232.994 289.293 236.475 287.634C239.473 286.205 242.308 284.407 245.114 282.616C246.75 281.572 248.001 280.282 247.811 277.91C247.673 276.197 248.956 274.932 250.828 274.928C252.895 274.925 253.903 276.39 253.868 278.196C253.834 279.954 252.649 281.022 250.73 281.062C250.185 281.073 249.393 281.135 249.141 281.483C245.765 286.153 240.402 287.897 235.65 290.397C232.681 291.959 231.613 293.942 231.72 297.393C233.506 296.339 235.115 295.39 236.911 294.409Z" fill="#13100A"/>
<path d="M272.251 327.796C272.431 327.23 272.837 326.723 273.39 326.204C274.599 326.285 275.889 326.038 276.667 326.558C277.54 327.141 278.464 328.443 278.416 329.384C278.369 330.304 277.204 331.823 276.393 331.919C274.415 332.152 273.783 333.401 273.097 334.832C271.196 338.794 269.403 342.815 267.323 346.681C266.544 348.13 265.284 349.526 263.897 350.392C262.205 351.449 261.098 352.48 260.846 354.597C259.826 363.147 258.604 371.673 257.594 380.224C257.485 381.146 258.063 382.336 258.682 383.117C259.867 384.609 260.169 386.182 258.662 387.258C257.764 387.899 255.879 388.102 254.973 387.578C253.323 386.623 253.354 384.929 254.426 383.222C255.024 382.269 255.402 381.085 255.555 379.961C256.807 370.732 257.91 361.483 259.273 352.271C259.439 351.145 260.667 349.825 261.751 349.255C264.169 347.984 265.579 346.118 266.672 343.691C268.438 339.771 270.61 336.032 272.328 332.093C272.854 330.888 272.454 329.279 272.251 327.796Z" fill="#18160B"/>
<path d="M287.977 186.104C288.67 185.452 289.57 184.934 289.634 184.328C290.031 180.549 292.934 178.931 295.575 177.044C297.227 175.864 299.07 175.032 299.269 172.415C299.394 170.763 301.092 169.806 302.924 170.312C304.791 170.828 305.669 172.225 305.33 174.141C305.009 175.96 303.821 177.07 301.947 176.545C300.356 176.099 299.393 176.664 298.307 177.646C297.136 178.704 295.885 179.757 294.492 180.466C292.739 181.357 292.192 182.825 291.529 184.486C291.026 185.744 290.004 187.007 288.873 187.754C287.13 188.905 285.02 189.486 283.212 190.557C281.953 191.304 280.832 192.369 279.845 193.468C278.636 194.815 277.181 195.657 275.74 194.466C274.788 193.679 274.009 192.052 274.055 190.836C274.123 189.058 276.056 187.636 277.421 188.424C281.161 190.583 283.673 187.83 286.633 186.815C287.044 186.674 287.411 186.406 287.977 186.104Z" fill="#1A170B"/>
<path d="M286.143 257.621C282.877 255.238 279.647 253.111 276.626 250.719C275.051 249.471 273.871 247.731 272.46 246.263C271.57 245.337 270.679 244.357 269.618 243.66C267.341 242.166 264.911 240.905 262.626 239.423C261.025 238.384 260.003 236.922 260.328 234.227C262.989 238.623 267.422 239.69 270.975 242.066C272.262 242.925 273.086 244.458 274.185 245.622C275.181 246.679 276.18 247.764 277.327 248.642C280.673 251.205 284.194 253.547 287.447 256.218C289.596 257.982 290.219 260.544 289.884 263.648C288.56 261.496 287.413 259.631 286.143 257.621Z" fill="#1A170B"/>
<path d="M198.667 287.111C198.048 287.518 197.54 287.787 197.032 288.055C197.031 287.503 196.935 286.928 197.06 286.407C197.156 286.008 197.465 285.594 197.793 285.328C202.639 281.402 201.778 276.204 200.924 271.054C200.801 270.31 200.157 269.566 199.578 269.003C198.133 267.596 197.924 266.027 199.148 264.541C200.228 263.231 201.767 263.05 203.137 264.21C204.63 265.474 204.594 266.858 203.707 268.663C203.005 270.092 202.487 272.103 202.939 273.52C204.716 279.101 202.671 283.268 198.667 287.111Z" fill="#1F1C10"/>
<path d="M285.736 136.882C285.032 136.752 284.47 136.535 283.687 136.268C284.608 134.897 285.721 133.553 286.897 132.264C288.119 130.925 289.287 129.779 289.25 127.586C289.233 126.621 291.062 125.111 292.31 124.761C294.052 124.272 295.514 125.731 295.476 127.408C295.446 128.734 294.36 131.137 293.669 131.164C289.665 131.322 288.342 134.785 285.736 136.882Z" fill="#0F0E08"/>
<path d="M250.142 239.044C248.77 235.241 249.076 234.664 252.971 233.332C251.468 236.435 251.624 237.765 254.449 240.283C256.931 242.495 259.663 244.426 262.348 246.53C261.406 248.007 260.138 248.282 258.892 247.189C255.948 244.603 253.122 241.88 250.142 239.044Z" fill="#13100A"/>
<path d="M255.152 154.838C254.667 155.038 254.293 155.116 253.742 155.267C253.343 153.407 254.313 152.33 255.927 151.362C256.869 150.797 257.791 149.577 257.982 148.518C258.311 146.686 259.031 145.467 260.885 145.39C262.73 145.313 263.899 146.468 264.042 148.263C264.198 150.225 263.026 151.543 261.128 151.647C258.625 151.784 256.815 152.924 255.152 154.838Z" fill="#131109"/>
<path d="M204.852 302.166C204.427 302.386 204.028 302.386 203.429 302.391C202.428 298.625 201.531 294.872 200.899 291.074C200.755 290.204 201.384 289.093 201.907 288.246C203.308 285.975 204.844 283.787 206.343 281.542C206.48 283.47 206.756 285.5 204.981 287.263C203.038 289.193 202.388 291.435 203.241 294.215C204.012 296.723 204.349 299.364 204.852 302.166Z" fill="#15130C"/>
<path d="M255.776 273.951C256.994 274.047 258.31 274.29 259.762 274.414C262.124 276.259 264.407 278.163 266.529 280.232C266.963 280.656 266.793 281.7 266.916 282.551C262.917 279.489 259.395 276.793 255.776 273.951Z" fill="#131109"/>
<path d="M224.791 270.107C225.237 269.565 225.756 269.177 226.419 268.656C228.914 271.311 231.267 274.098 233.95 277.278C230.111 275.522 227.263 273.196 224.791 270.107Z" fill="#1F1C10"/>
<path d="M225.598 355.437C225.731 355.185 225.917 355.144 226.038 355.033C226.82 354.314 227.588 353.581 228.361 352.852C228.989 353.838 229.617 354.825 230.32 356.009C228.535 358.185 227.027 357.31 225.598 355.437Z" fill="#1F1C10"/>
<path d="M230.448 301.851C232.058 298.752 235.193 297.658 238.536 296.579C236.034 298.326 233.332 300.07 230.448 301.851Z" fill="#13100A"/>
<path d="M199.666 331.64C200.19 331.465 200.724 331.469 201.457 331.47C201.464 332.269 201.272 333.07 200.936 334.468C200.357 333.249 200.016 332.534 199.666 331.64Z" fill="#15130C"/>
<path d="M259.043 286.062C259.375 285.409 259.895 284.732 260.489 283.877C261.005 283.925 261.447 284.152 262.221 284.548C261.023 285.145 260.127 285.592 259.043 286.062Z" fill="#13100A"/>
<path d="M202.535 308.658C202.454 309.41 202.227 310.242 201.877 311.214C201.965 310.482 202.178 309.611 202.535 308.658Z" fill="#15130C"/>
<path d="M266.147 248.798C265.285 248.931 264.321 248.925 263.115 248.902C263.931 248.811 264.988 248.735 266.147 248.798Z" fill="#15130C"/>
<path d="M248.084 288.206C247.778 288.568 247.312 288.941 246.737 289.213C247.06 288.813 247.491 288.514 248.084 288.206Z" fill="#13100A"/>
<path d="M283.918 140.867C283.857 140.448 283.771 139.821 283.795 139.097C283.901 139.553 283.897 140.106 283.918 140.867Z" fill="#0F0E08"/>
<path d="M262.565 251.175C262.388 250.813 262.211 250.45 261.96 249.9C261.882 249.581 261.937 249.484 262.138 249.406C262.763 249.653 263.301 249.914 263.807 250.331C263.371 250.716 262.968 250.946 262.565 251.175Z" fill="#15130C"/>
<path d="M251.456 271.36C252.016 271.517 252.67 271.824 253.381 272.316C252.809 272.171 252.179 271.841 251.456 271.36Z" fill="#131109"/>
<path d="M230.554 341.463C230.482 342.027 230.269 342.707 229.926 343.512C230.002 342.951 230.208 342.265 230.554 341.463Z" fill="#1F1C10"/>
<path d="M203.644 320.933C203.553 321.355 203.322 321.865 202.921 322.427C203.002 321.993 203.253 321.507 203.644 320.933Z" fill="#15130C"/>
<path d="M231.683 167.117C231.403 167.415 230.957 167.714 230.332 168.004C230.608 167.702 231.063 167.41 231.683 167.117Z" fill="#131109"/>
<path d="M223.455 268.662C223.809 268.848 224.248 269.159 224.646 269.648C224.251 269.48 223.895 269.133 223.455 268.662Z" fill="#1F1C10"/>
<path d="M263.125 272.904C263.534 273.01 264.03 273.256 264.573 273.673C264.151 273.577 263.682 273.31 263.125 272.904Z" fill="#131109"/>
<path d="M249.986 290.71C250.279 290.393 250.747 290.065 251.405 289.751C251.117 290.076 250.639 290.388 249.986 290.71Z" fill="#13100A"/>
<path d="M239.634 163.935C239.496 164.141 239.208 164.341 238.824 164.459C238.98 164.227 239.233 164.078 239.634 163.935Z" fill="#131109"/>
<path d="M250.423 270.806C250.671 270.763 251.003 270.852 251.357 271.081C251.089 271.126 250.798 271.032 250.423 270.806Z" fill="#131109"/>
<path d="M201.393 320.754C201.199 320.538 200.984 320.16 200.802 319.608C201.014 319.82 201.193 320.207 201.393 320.754Z" fill="#15130C"/>
<path d="M276.798 147.934C276.522 147.841 276.246 147.748 275.861 147.554C275.999 147.275 276.244 147.096 276.645 146.921C276.8 147.149 276.798 147.375 276.796 147.769C276.796 147.937 276.798 147.934 276.798 147.934Z" fill="#131109"/>
<path d="M267.198 249.866C266.898 249.767 266.599 249.505 266.268 249.086C266.557 249.188 266.877 249.445 267.198 249.866Z" fill="#15130C"/>
<path d="M260.785 154.854C260.654 155.078 260.367 155.306 259.979 155.449C260.128 155.195 260.379 155.026 260.785 154.854Z" fill="#131109"/>
<path d="M206.123 320.386C205.977 320.013 205.969 319.513 205.99 318.764C206.1 319.096 206.18 319.677 206.123 320.386Z" fill="#15130C"/>
<path d="M243.826 162.197C243.711 162.36 243.428 162.522 242.976 162.687C243.091 162.525 243.374 162.361 243.826 162.197Z" fill="#131109"/>
<path d="M238.881 296.58C238.973 296.413 239.22 296.24 239.622 296.051C239.53 296.215 239.283 296.394 238.881 296.58Z" fill="#13100A"/>
<path d="M258.652 155.877C258.547 156.039 258.279 156.2 257.851 156.367C257.957 156.207 258.223 156.042 258.652 155.877Z" fill="#131109"/>
<path d="M176.376 299.192C176.338 299.115 176.59 299.083 176.71 299.124C176.83 299.166 176.643 299.327 176.643 299.327C176.643 299.327 176.415 299.269 176.376 299.192Z" fill="black"/>
<path d="M235.898 165.435C235.883 165.55 235.699 165.661 235.351 165.791C235.368 165.684 235.548 165.558 235.898 165.435Z" fill="#131109"/>
<path d="M282.162 143.878C282.266 143.913 282.35 144.119 282.421 144.495C282.32 144.46 282.231 144.255 282.162 143.878Z" fill="#131109"/>
<path d="M228.361 349.749C228.45 349.835 228.431 350.045 228.317 350.383C228.233 350.299 228.244 350.086 228.361 349.749Z" fill="#1F1C10"/>
<path d="M229.619 344.182C229.747 344.246 229.74 344.377 229.61 344.579C229.459 344.521 229.458 344.387 229.619 344.182Z" fill="#1F1C10"/>
<path d="M232.129 342.291C232.067 342.194 232.127 341.983 232.309 341.659C232.371 341.756 232.311 341.967 232.129 342.291Z" fill="#1F1C10"/>
<path d="M203.375 303.606C203.486 303.632 203.577 303.823 203.667 304.177C203.561 304.15 203.458 303.96 203.375 303.606Z" fill="#15130C"/>
<path d="M251.115 159.048C251.109 159.017 251.161 159.061 251.145 159.073C251.13 159.084 251.121 159.078 251.115 159.048Z" fill="#131109"/>
<path d="M203.318 326.595C203.252 326.633 203.283 326.381 203.324 326.331C203.449 326.368 203.455 326.46 203.318 326.595Z" fill="#15130C"/>
<path d="M260.502 283.594C260.406 283.648 260.236 283.579 259.978 283.402C260.07 283.352 260.249 283.412 260.502 283.594Z" fill="#13100A"/>
<path d="M241.19 163.34C241.175 163.451 240.994 163.559 240.653 163.684C240.67 163.58 240.847 163.459 241.19 163.34Z" fill="#131109"/>
<path d="M205.226 303.811C205.127 303.789 205.04 303.617 204.955 303.296C205.051 303.32 205.144 303.49 205.226 303.811Z" fill="#15130C"/>
<path d="M234.048 257.424C234.67 257.717 235.304 258.205 236.014 258.847C235.414 258.54 234.737 258.08 234.048 257.424Z" fill="#131109"/>
<path d="M238.838 261.195C239.293 261.282 239.782 261.554 240.36 261.972C239.923 261.872 239.398 261.626 238.838 261.195Z" fill="#131109"/>
<path d="M237.238 260.051C237.693 260.151 238.173 260.442 238.738 260.88C238.303 260.765 237.783 260.504 237.238 260.051Z" fill="#131109"/>
<path d="M253.62 270.177C254.081 270.264 254.583 270.539 255.18 270.959C254.736 270.858 254.199 270.612 253.62 270.177Z" fill="#131109"/>
<path d="M223.856 366.512C224.038 366.48 224.088 366.615 223.982 366.843C223.898 366.82 223.864 366.734 223.856 366.512Z" fill="black"/>
<path d="M277.831 148.905C277.626 149.233 277.378 149.398 276.976 149.577C276.816 149.177 276.808 148.763 276.799 148.142C276.798 147.934 276.796 147.937 276.795 147.938C277.125 148.206 277.457 148.474 277.831 148.905Z" fill="#131109"/>
<path d="M250.315 400.984C250.552 400.762 250.773 400.759 251.159 400.752C251.991 403.633 252.658 406.517 253.324 409.401C252.996 409.476 252.667 409.552 252.338 409.627C251.658 406.819 250.979 404.011 250.315 400.984Z" fill="black"/>
<path d="M249.17 395.116C249.298 395.123 249.335 395.219 249.308 395.406C249.165 395.421 249.11 395.324 249.17 395.116Z" fill="black"/>
</g>
<defs>
<clipPath id="clip0_3300_97">
<rect width="512" height="512" rx="60" fill="white"/>
</clipPath>
</defs>
</svg>
